<svg width="28" height="26" viewBox="0 0 28 26" fill="none" xmlns="http://www.w3.org/2000/svg">
<path d="M26.6128 10.9731L16.2549 1.17378C15.8963 0.823282 15.4702 0.545196 15.0011 0.355457C14.532 0.165717 14.0291 0.0680542 13.5212 0.0680542C13.0133 0.0680542 12.5104 0.165717 12.0413 0.355457C11.5722 0.545196 11.1461 0.823282 10.7875 1.17378L0.429562 10.9731C0.298053 11.0926 0.192373 11.2364 0.118677 11.3963C0.0449807 11.5561 0.00474787 11.7286 0.000395353 11.9038C-0.00395717 12.079 0.0276676 12.2532 0.0933397 12.4163C0.159012 12.5794 0.257421 12.7281 0.382843 12.8536C0.508265 12.9792 0.658163 13.079 0.823711 13.1473C0.989258 13.2156 1.16712 13.251 1.34689 13.2514C1.52667 13.2519 1.7047 13.2173 1.87057 13.1497C2.03644 13.0821 2.18682 12.983 2.31284 12.858L2.7212 12.4698V22.4369C2.7212 23.1349 3.00566 23.8042 3.51201 24.2977C4.01836 24.7913 4.70512 25.0685 5.4212 25.0685H8.1212C8.83728 25.0685 9.52404 24.7913 10.0304 24.2977C10.5367 23.8042 10.8212 23.1349 10.8212 22.4369V19.8054C10.8212 19.4564 10.9635 19.1217 11.2166 18.875C11.4698 18.6282 11.8132 18.4896 12.1712 18.4896H14.8712C15.2292 18.4896 15.5726 18.6282 15.8258 18.875C16.0789 19.1217 16.2212 19.4564 16.2212 19.8054V22.4369C16.2212 23.1349 16.5057 23.8042 17.012 24.2977C17.5184 24.7913 18.2051 25.0685 18.9212 25.0685H21.6212C22.3373 25.0685 23.024 24.7913 23.5304 24.2977C24.0367 23.8042 24.3212 23.1349 24.3212 22.4369V12.4698L24.7296 12.858C24.8556 12.983 25.006 13.0821 25.1718 13.1497C25.3377 13.2173 25.5157 13.2519 25.6955 13.2514C25.8753 13.251 26.0531 13.2156 26.2187 13.1473C26.3842 13.079 26.5341 12.9792 26.6596 12.8536C26.785 12.7281 26.8834 12.5794 26.9491 12.4163C27.0147 12.2532 27.0464 12.079 27.042 11.9038C27.0377 11.7286 26.9974 11.5561 26.9237 11.3963C26.85 11.2364 26.7443 11.0926 26.6128 10.9731V10.9731Z" fill="#636363"/>
</svg>
