<svg width="20" height="25" viewBox="0 0 20 25" fill="none" xmlns="http://www.w3.org/2000/svg">
<g clip-path="url(#clip0_509_1392)">
<path d="M9.63655 11.1111C12.6347 11.1111 15.0651 8.62381 15.0651 5.55556C15.0651 2.48731 12.6347 0 9.63655 0C6.63843 0 4.20798 2.48731 4.20798 5.55556C4.20798 8.62381 6.63843 11.1111 9.63655 11.1111Z" fill="#636363"/>
<path d="M19.1365 19.4444V20.8333C19.1365 21.9384 18.7076 22.9982 17.944 23.7796C17.1805 24.561 16.1449 25 15.0651 25H4.20796C3.12815 25 2.09257 24.561 1.32903 23.7796C0.565491 22.9982 0.136536 21.9384 0.136536 20.8333V19.4444C0.136536 17.6027 0.851457 15.8363 2.12403 14.534C3.39659 13.2316 5.12257 12.5 6.92225 12.5H12.3508C14.1505 12.5 15.8765 13.2316 17.149 14.534C18.4216 15.8363 19.1365 17.6027 19.1365 19.4444Z" fill="#636363"/>
</g>
<defs>
<clipPath id="clip0_509_1392">
<rect width="19" height="25" fill="white" transform="translate(0.136536)"/>
</clipPath>
</defs>
</svg>
