<svg width="25" height="25" viewBox="0 0 25 25" fill="none" xmlns="http://www.w3.org/2000/svg">
<path d="M10.8333 0.333252C16.6293 0.333252 21.3333 5.03725 21.3333 10.8333C21.3333 16.6293 16.6293 21.3333 10.8333 21.3333C5.03731 21.3333 0.333313 16.6293 0.333313 10.8333C0.333313 5.03725 5.03731 0.333252 10.8333 0.333252ZM10.8333 18.9999C15.3448 18.9999 19 15.3448 19 10.8333C19 6.32175 15.3448 2.66659 10.8333 2.66659C6.32181 2.66659 2.66665 6.32175 2.66665 10.8333C2.66665 15.3448 6.32181 18.9999 10.8333 18.9999ZM20.7325 19.0828L24.033 22.3821L22.3821 24.0329L19.0828 20.7324L20.7325 19.0828Z" fill="#0ABA7B"/>
</svg>
